<?xml version="1.0" encoding="UTF-8" standalone="no"?>
<svg
   xmlns:dc="http://purl.org/dc/elements/1.1/"
   xmlns:cc="http://creativecommons.org/ns#"
   xmlns:rdf="http://www.w3.org/1999/02/22-rdf-syntax-ns#"
   xmlns:svg="http://www.w3.org/2000/svg"
   xmlns="http://www.w3.org/2000/svg"
   xmlns:sodipodi="http://sodipodi.sourceforge.net/DTD/sodipodi-0.dtd"
   xmlns:inkscape="http://www.inkscape.org/namespaces/inkscape"
   t="1563245067701"
   class="icon"
   viewBox="0 0 1000 1000"
   version="1.1"
   p-id="1100"
   width="200"
   height="200"
   id="svg8"
   sodipodi:docname="箭头.svg"
   inkscape:version="0.92.4 5da689c313, 2019-01-14">
  <metadata
     id="metadata12">
    <rdf:RDF>
      <cc:Work
         rdf:about="">
        <dc:format>image/svg+xml</dc:format>
        <dc:type
           rdf:resource="http://purl.org/dc/dcmitype/StillImage" />
      </cc:Work>
    </rdf:RDF>
  </metadata>
  <sodipodi:namedview
     pagecolor="#ffffff"
     bordercolor="#666666"
     borderopacity="1"
     objecttolerance="10"
     gridtolerance="10"
     guidetolerance="10"
     inkscape:pageopacity="0"
     inkscape:pageshadow="2"
     inkscape:window-width="1366"
     inkscape:window-height="673"
     id="namedview10"
     showgrid="false"
     inkscape:zoom="1.18"
     inkscape:cx="100"
     inkscape:cy="66.101695"
     inkscape:window-x="0"
     inkscape:window-y="20"
     inkscape:window-maximized="1"
     inkscape:current-layer="svg8" />
  <defs
     id="defs4">
    <style
       type="text/css"
       id="style2" />
  </defs>
  <path
     d="m 609.79675,202.87725 257.492,257.492 c 20.11,20.11 20.11,52.709 0,72.819 l -257.492,257.492 c -20.11,20.11 -52.709,20.11 -72.819,0 -20.11,-20.11 -20.11,-52.709 0,-72.819 l 169.585,-169.585 h -493.664 c -28.453,0 -51.499,-23.046 -51.499,-51.499 0,-28.453 23.046,-51.499 51.499,-51.499 h 493.664 l -169.585,-169.585 c -10.043,-10.042 -15.089,-23.226 -15.089,-36.41 0,-13.184 5.021,-26.367 15.089,-36.41 20.11,-20.11 52.709,-20.11 72.819,0 z"
     p-id="1101"
     id="path6"
     inkscape:connector-curvature="0" />
</svg>
